<svg width="100" height="100" viewBox="0 0 100 100" xmlns="http://www.w3.org/2000/svg">
  <defs>
    <linearGradient id="beautyGrad" x1="0%" y1="0%" x2="100%" y2="100%">
      <stop offset="0%" style="stop-color:#eb2f96;stop-opacity:1" />
      <stop offset="100%" style="stop-color:#722ed1;stop-opacity:1" />
    </linearGradient>
  </defs>
  <!-- 口红 -->
  <rect x="35" y="30" width="12" height="40" fill="url(#beautyGrad)" rx="6"/>
  <rect x="37" y="25" width="8" height="10" fill="#333" rx="4"/>
  <ellipse cx="41" cy="30" rx="4" ry="2" fill="#eb2f96"/>
  <!-- 粉饼 -->
  <circle cx="65" cy="45" r="15" fill="url(#beautyGrad)"/>
  <circle cx="65" cy="45" r="12" fill="white"/>
  <circle cx="65" cy="45" r="8" fill="#eb2f96" opacity="0.3"/>
  <!-- 刷子 -->
  <line x1="65" y1="30" x2="65" y2="15" stroke="#8B4513" stroke-width="3"/>
  <ellipse cx="65" cy="12" rx="4" ry="3" fill="#DDD"/>
  <!-- 香水瓶 -->
  <rect x="25" y="65" width="15" height="20" fill="url(#beautyGrad)" rx="3"/>
  <rect x="28" y="60" width="9" height="8" fill="#333" rx="2"/>
  <ellipse cx="32.5" cy="58" rx="3" ry="2" fill="#666"/>
  <!-- 装饰星星 -->
  <polygon points="75,25 77,30 82,30 78,33 80,38 75,35 70,38 72,33 68,30 73,30" fill="#fa8c16"/>
  <polygon points="20,50 21,53 24,53 22,55 23,58 20,56 17,58 18,55 16,53 19,53" fill="#52c41a"/>
</svg>