<svg width="300" height="200" viewBox="0 0 300 200" xmlns="http://www.w3.org/2000/svg">
  <defs>
    <linearGradient id="serviceGrad" x1="0%" y1="0%" x2="100%" y2="100%">
      <stop offset="0%" style="stop-color:#fa8c16;stop-opacity:1" />
      <stop offset="100%" style="stop-color:#eb2f96;stop-opacity:1" />
    </linearGradient>
  </defs>
  <rect width="300" height="200" fill="#f0f2f5"/>
  <!-- 客服头像 -->
  <circle cx="150" cy="80" r="35" fill="url(#serviceGrad)"/>
  <circle cx="150" cy="70" r="15" fill="white"/>
  <path d="M 125 95 Q 150 110 175 95" fill="white"/>
  <!-- 耳机 -->
  <path d="M 120 65 Q 115 60 115 70 Q 115 80 120 75" fill="#333" stroke="#333" stroke-width="2"/>
  <path d="M 180 65 Q 185 60 185 70 Q 185 80 180 75" fill="#333" stroke="#333" stroke-width="2"/>
  <line x1="120" y1="70" x2="180" y2="70" stroke="#333" stroke-width="3"/>
  <!-- 对话气泡 -->
  <ellipse cx="200" cy="60" rx="25" ry="15" fill="#fa8c16"/>
  <polygon points="175,65 185,70 175,75" fill="#fa8c16"/>
  <text x="200" y="65" text-anchor="middle" font-family="Arial, sans-serif" font-size="12" fill="white">Hi!</text>
  <text x="150" y="140" text-anchor="middle" font-family="Arial, sans-serif" font-size="18" font-weight="bold" fill="#fa8c16">优质服务</text>
  <text x="150" y="165" text-anchor="middle" font-family="Arial, sans-serif" font-size="14" fill="#666">Quality Service</text>
</svg>